<?xml version="1.0" encoding="utf-8"?>
<!-- Generator: Adobe Illustrator 16.0.0, SVG Export Plug-In . SVG Version: 6.00 Build 0)  -->
<!DOCTYPE svg PUBLIC "-//W3C//DTD SVG 1.1//EN" "http://www.w3.org/Graphics/SVG/1.1/DTD/svg11.dtd">
<svg version="1.1" id="Layer_1" xmlns="http://www.w3.org/2000/svg" xmlns:xlink="http://www.w3.org/1999/xlink" x="0px" y="0px"
	 width="302.208px" height="50.404px" viewBox="0 0 302.208 50.404" enable-background="new 0 0 302.208 50.404"
	 xml:space="preserve">
<g>
	<g>
		<path fill="#1A1A1A" d="M35.067,33.763c0-0.55-0.39-0.775-0.867-0.501l-7.411,4.268c-0.477,0.274-1.257,0.274-1.733,0
			l-7.412-4.268c-0.477-0.274-0.867-0.049-0.867,0.501v15.642c0,0.55-0.45,1-1,1H1c-0.55,0-1-0.45-1-1V1c0-0.55,0.45-1,1-1h14.777
			c0.55,0,1.23,0.387,1.512,0.859l8.193,13.763c0.281,0.473,0.743,0.474,1.026,0.002l8.26-13.767C35.052,0.386,35.733,0,36.283,0
			h14.562c0.55,0,1,0.45,1,1v48.404c0,0.55-0.45,1-1,1H36.067c-0.55,0-1-0.45-1-1V33.763z"/>
	</g>
	<g>
		<path fill="#1A1A1A" d="M88.267,50.404c-0.55,0-1.142-0.427-1.316-0.949l-0.808-2.423c-0.174-0.522-0.767-0.949-1.316-0.949
			H72.857c-0.55,0-1.142,0.427-1.316,0.949l-0.807,2.423c-0.174,0.522-0.767,0.949-1.316,0.949H54.64
			c-0.55,0-0.858-0.427-0.684-0.949L70.102,0.949C70.275,0.427,70.868,0,71.417,0h14.777c0.55,0,1.143,0.427,1.317,0.948
			l16.216,48.508c0.174,0.521-0.133,0.948-0.683,0.948H88.267z M80.65,33.627c0.55,0,0.877-0.433,0.728-0.962l-2.264-8.013
			c-0.149-0.529-0.395-0.529-0.544,0l-2.265,8.013c-0.149,0.529,0.178,0.962,0.728,0.962H80.65z"/>
	</g>
	<g>
		<path fill="#1A1A1A" d="M140.986,33.763c0-0.55-0.39-0.775-0.867-0.501l-7.411,4.268c-0.477,0.274-1.257,0.274-1.733,0
			l-7.412-4.268c-0.477-0.274-0.867-0.049-0.867,0.501v15.642c0,0.55-0.45,1-1,1h-14.777c-0.55,0-1-0.45-1-1V1c0-0.55,0.45-1,1-1
			h14.777c0.55,0,1.23,0.387,1.512,0.859l8.193,13.763c0.281,0.473,0.743,0.474,1.026,0.002l8.26-13.767
			C140.971,0.386,141.652,0,142.202,0h14.562c0.55,0,1,0.45,1,1v48.404c0,0.55-0.45,1-1,1h-14.777c-0.55,0-1-0.45-1-1V33.763z"/>
	</g>
	<g>
		<path fill="#1A1A1A" d="M197.297,33.763c0-0.55-0.39-0.775-0.866-0.501l-7.412,4.268c-0.477,0.274-1.256,0.274-1.732,0
			l-7.412-4.268c-0.477-0.274-0.866-0.049-0.866,0.501v15.642c0,0.55-0.45,1-1,1H163.23c-0.55,0-1-0.45-1-1V1c0-0.55,0.45-1,1-1
			h14.777c0.55,0,1.23,0.387,1.512,0.859l8.193,13.763c0.281,0.473,0.743,0.474,1.026,0.002l8.26-13.767
			C197.282,0.386,197.964,0,198.514,0h14.562c0.55,0,1,0.45,1,1v48.404c0,0.55-0.45,1-1,1h-14.778c-0.55,0-1-0.45-1-1V33.763z"/>
	</g>
	<g>
		<path fill="#1A1A1A" d="M250.497,50.404c-0.55,0-1.143-0.427-1.316-0.949l-0.808-2.423c-0.174-0.522-0.767-0.949-1.316-0.949
			h-11.969c-0.55,0-1.143,0.427-1.316,0.949l-0.808,2.423c-0.174,0.522-0.767,0.949-1.316,0.949H216.87
			c-0.55,0-0.857-0.427-0.685-0.949l16.146-48.507C232.505,0.427,233.098,0,233.647,0h14.777c0.55,0,1.143,0.427,1.317,0.948
			l16.215,48.508c0.175,0.521-0.133,0.948-0.683,0.948H250.497z M242.881,33.627c0.55,0,0.878-0.433,0.728-0.962l-2.264-8.013
			c-0.15-0.529-0.395-0.529-0.545,0l-2.264,8.013c-0.15,0.529,0.178,0.962,0.728,0.962H242.881z"/>
	</g>
	<g>
		<path fill="#1A1A1A" d="M268.653,1c0-0.55,0.45-1,1-1h14.777c0.55,0,1,0.45,1,1v31.627c0,0.55,0.45,1,1,1h14.777
			c0.55,0,1,0.45,1,1v14.777c0,0.55-0.45,1-1,1h-31.555c-0.55,0-1-0.45-1-1V1z"/>
	</g>
</g>
</svg>
